Coordinates
version=1
nRows=7
nColumns=40
inDegrees=yes

Units are S.I. units (second, meters, Newtons, ...)
Angles are in degrees.

endheader
time	pelvis_tilt	pelvis_list	pelvis_rotation	pelvis_tx	pelvis_ty	pelvis_tz	hip_flexion_r	hip_adduction_r	hip_rotation_r	knee_angle_r	knee_angle_r_beta	ankle_angle_r	subtalar_angle_r	mtp_angle_r	hip_flexion_l	hip_adduction_l	hip_rotation_l	knee_angle_l	knee_angle_l_beta	ankle_angle_l	subtalar_angle_l	mtp_angle_l	lumbar_extension	lumbar_bending	lumbar_rotation	arm_flex_r	arm_add_r	arm_rot_r	elbow_flex_r	pro_sup_r	wrist_flex_r	wrist_dev_r	arm_flex_l	arm_add_l	arm_rot_l	elbow_flex_l	pro_sup_l	wrist_flex_l	wrist_dev_l
      0.98000000	     -4.32795256	      0.14484577	      2.87661005	      1.52616637	      0.84953363	      0.23911127	     28.75732780	     -2.85915445	     -3.17077053	    -89.06881999	     -1.55454417	     -3.74888243	    -17.59646654	     13.90963091	     19.13818148	     -6.54194038	      2.88226557	    -44.22051277	     -0.77179354	     17.55395094	     -2.08029455	    -17.36588453	     -4.22870960	     -0.47025410	     -3.56406580	    -18.91217703	    -16.48551570	      4.32616365	     83.07998435	     89.95437384	      0.00000000	      0.00000000	     -1.35067417	     26.52783221	    -28.96013703	     93.27413863	     89.95437384	      0.00000000	      0.00000000
      0.99000000	     -4.86358212	     -0.19696220	      3.08500167	      1.55680093	      0.85259815	      0.23815194	     32.33747962	     -2.51937406	     -3.41144713	    -87.67676592	     -1.53024824	     -3.20332328	    -17.13823553	     13.48841252	     16.65449094	     -6.05169084	      2.81507174	    -42.80758829	     -0.74713336	     17.01065274	     -2.09578490	    -16.84906498	     -3.45070070	     -0.07994203	     -4.70263112	    -21.63403270	    -16.93336408	      3.92887070	     84.39218820	     89.95437384	      0.00000000	      0.00000000	     -0.06180879	     25.32641873	    -28.14016885	     96.03037578	     89.95437384	      0.00000000	      0.00000000
      1.00000000	     -5.24706892	     -0.49537890	      3.18380075	      1.58782966	      0.85706442	      0.23698002	     35.35185326	     -2.13888581	     -3.57524008	    -85.51392205	     -1.49249950	     -2.22241852	    -17.53159415	     13.18866060	     13.74988422	     -5.65863682	      2.49554966	    -40.79005487	     -0.71192076	     15.72457925	     -2.91420384	    -16.55152890	     -2.83982592	      0.36363866	     -5.24830290	    -24.88399229	    -16.81806654	      2.30876110	     86.22318039	     89.95437384	      0.00000000	      0.00000000	      1.35183872	     23.70160647	    -27.39623907	     98.49964941	     89.95437384	      0.00000000	      0.00000000
      1.01000000	     -6.00549330	     -0.72188137	      3.28387264	      1.61879571	      0.86155619	      0.23576695	     38.48787628	     -1.96963467	     -3.90183602	    -82.72680622	     -1.44385515	     -1.74252088	    -17.15914912	     12.90501430	     11.60084377	     -5.23700372	      2.78085422	    -39.25026961	     -0.68504644	     14.33570662	     -2.72398566	    -15.93077439	     -1.76321282	      0.67156684	     -6.20157116	    -27.70358291	    -17.22669987	      1.72666394	     87.98661096	     89.95437384	      0.00000000	      0.00000000	      2.25034391	     22.54560633	    -26.60538567	    101.60626707	     89.95437384	      0.00000000	      0.00000000
      1.02000000	     -6.39016339	     -1.01034716	      3.15378093	      1.65063229	      0.86773877	      0.23471682	     40.60821139	     -1.53240665	     -4.16108831	    -78.94336668	     -1.37782167	     -1.39338305	    -17.20087290	     12.77893086	      8.94070616	     -4.75518042	      3.00558405	    -37.28599857	     -0.65076344	     10.84873002	     -2.51704790	    -15.05673073	     -1.04183460	      1.13584149	     -6.71258137	    -30.57415559	    -17.26123603	      0.57609780	     89.66236588	     89.95437384	      0.00000000	      0.00000000	      3.00942511	     20.92239827	    -25.60950626	    104.42488083	     89.95437384	      0.00000000	      0.00000000
      1.03000000	     -5.42810409	     -1.39111970	      2.90055194	      1.68429332	      0.87627502	      0.23443645	     40.46940305	     -0.82190378	     -4.60083084	    -74.15065407	     -1.29417306	     -1.32234202	    -17.25499376	     13.46522174	      4.75254755	     -3.68796645	      4.44169362	    -35.12930319	     -0.61312200	      6.52647349	     -3.59235737	    -14.28983863	     -1.71784288	      1.72043466	     -7.03437482	    -33.20510813	    -17.41434848	     -0.21748513	     91.32132125	     89.95437384	      0.00000000	      0.00000000	      3.95526495	     19.85410974	    -25.17080166	    107.44071966	     89.95437384	      0.00000000	      0.00000000
      1.04000000	     -5.24043425	     -1.71851314	      2.77844238	      1.71786407	      0.88375995	      0.23389027	     40.83608380	     -0.16644052	     -4.89814726	    -68.92106304	     -1.20289947	     -1.59284712	    -16.99962062	     13.94550065	      1.71530900	     -3.02031184	      5.20519077	    -33.23304045	     -0.58002598	      2.12459597	     -2.94964340	    -13.05876401	     -1.45330735	      2.21380438	     -7.52411954	    -35.80636005	    -17.56296667	     -0.92950964	     92.84123539	     89.95437384	      0.00000000	      0.00000000	      4.50091221	     18.76564494	    -24.62731834	    110.42933427	     89.95437384	      0.00000000	      0.00000000
